<svg width="56" height="56" viewBox="0 0 56 56" fill="none" xmlns="http://www.w3.org/2000/svg">
<path d="M21.3612 19.8324H16.7272C16.5732 19.8324 16.4416 19.9416 16.4164 20.0928L12.6168 41.552C12.6 41.6444 12.6252 41.7396 12.6868 41.8096C12.7484 41.8824 12.8352 41.9216 12.9304 41.9216H17.5644C17.7184 41.9216 17.85 41.8124 17.8752 41.6612L21.6748 20.202C21.6916 20.1096 21.6664 20.0144 21.6048 19.9444C21.5432 19.8716 21.4564 19.8324 21.3612 19.8324ZM19.922 17.472C20.7788 17.472 21.5908 17.1304 22.2124 16.5088C22.8508 15.8704 23.2064 15.0472 23.212 14.1904C23.2176 13.3364 22.8788 12.5216 22.26 11.9028C21.6384 11.2588 20.8124 10.906 19.9276 10.906C19.0428 10.906 18.2168 11.2616 17.6008 11.9C16.31 13.1908 16.3072 15.1704 17.6036 16.5144C18.2448 17.1332 19.068 17.472 19.922 17.472ZM49.8708 6.1292C45.5728 1.834 39.032 0 28 0C16.968 0 10.4272 1.834 6.1292 6.1292C1.834 10.4272 0 16.968 0 28C0 39.032 1.834 45.5728 6.1292 49.8708C10.4272 54.1688 16.9652 56 28 56C39.0348 56 45.5728 54.166 49.8708 49.8708C54.1688 45.5756 56 39.0348 56 28C56 16.9652 54.166 10.4272 49.8708 6.1292ZM46.144 46.144C42.9716 49.3164 37.3772 50.7304 28 50.7304C18.6228 50.7304 13.0284 49.3164 9.856 46.144C6.6836 42.9716 5.2696 37.3772 5.2696 28C5.2696 18.6228 6.6836 13.0284 9.856 9.856C13.0284 6.6836 18.6228 5.2696 28 5.2696C37.3772 5.2696 42.9716 6.6836 46.144 9.856C49.3164 13.0284 50.7304 18.6228 50.7304 28C50.7304 37.3772 49.3164 42.9716 46.144 46.144ZM37.6656 19.2752C34.9664 19.2752 32.704 20.1516 30.9288 21.882L31.2256 20.2048C31.2424 20.1124 31.2172 20.0172 31.1556 19.9472C31.094 19.8744 31.0072 19.8352 30.912 19.8352H26.278C26.124 19.8352 25.9924 19.9444 25.9672 20.0956L22.1676 41.5548C22.1508 41.6472 22.176 41.7424 22.2376 41.8124C22.2992 41.8852 22.386 41.9244 22.4812 41.9244H27.1152C27.2692 41.9244 27.4008 41.8152 27.426 41.664L29.4644 30.1616C30.1308 26.4012 32.4016 24.2424 35.6972 24.2424C37.0468 24.2424 38.0884 24.6344 38.71 25.3736C39.368 26.1576 39.5752 27.3588 39.312 28.8484L37.0636 41.552C37.0468 41.6444 37.072 41.7396 37.1336 41.8096C37.1952 41.8824 37.282 41.9216 37.3772 41.9216H42.014C42.168 41.9216 42.2996 41.8124 42.3248 41.6612L44.6572 28.4844C45.1668 25.6088 44.7048 23.2148 43.3244 21.5656C42.0644 20.0648 40.11 19.2696 37.6712 19.2696L37.6656 19.2752Z" fill="#21093A"/>
</svg>
